<svg
  xmlns="http://www.w3.org/2000/svg"
  width="1em"
  height="1em"
  class="inline-block text-3xl"
  viewBox="0 0 40 40"
  fill="currentColor"
  aria-hidden="true"
>
  <path
    d="M20 7.01697C18.2496 7.01697 16.5386 7.53601 15.0832 8.50846C13.6278 9.48091 12.4935 10.8631 11.8237 12.4802C11.1538 14.0973 10.9786 15.8768 11.32 17.5935C11.6615 19.3102 12.5044 20.8872 13.7421 22.1249C14.9798 23.3626 16.5567 24.2054 18.2734 24.5469C19.9902 24.8884 21.7696 24.7131 23.3867 24.0433C25.0039 23.3735 26.3861 22.2391 27.3585 20.7838C28.331 19.3284 28.85 17.6173 28.85 15.867C28.85 13.5198 27.9176 11.2688 26.2579 9.60907C24.5982 7.94938 22.3472 7.01697 20 7.01697ZM24.519 15.017L22.2 16.705L23.085 19.429C23.1178 19.5295 23.1179 19.6378 23.0852 19.7383C23.0526 19.8389 22.9889 19.9265 22.9034 19.9886C22.8178 20.0507 22.7148 20.0841 22.6091 20.084C22.5034 20.0839 22.4004 20.0503 22.315 19.988L20 18.304L17.683 19.988C17.5976 20.0503 17.4946 20.0839 17.3889 20.084C17.2832 20.0841 17.1802 20.0507 17.0946 19.9886C17.0091 19.9265 16.9454 19.8389 16.9128 19.7383C16.8801 19.6378 16.8802 19.5295 16.913 19.429L17.798 16.705L15.481 15.021C15.3974 14.9583 15.3356 14.8711 15.3042 14.7715C15.2727 14.6719 15.2732 14.5649 15.3057 14.4657C15.3381 14.3664 15.4008 14.2798 15.485 14.2179C15.5691 14.1561 15.6706 14.1222 15.775 14.121H18.639L19.524 11.397C19.565 11.3049 19.6317 11.2267 19.7162 11.1719C19.8007 11.117 19.8993 11.0878 20 11.0878C20.1007 11.0878 20.1993 11.117 20.2838 11.1719C20.3683 11.2267 20.435 11.3049 20.476 11.397L21.361 14.121H24.225C24.3294 14.1222 24.4308 14.1561 24.515 14.2179C24.5992 14.2798 24.6619 14.3664 24.6943 14.4657C24.7268 14.5649 24.7273 14.6719 24.6958 14.7715C24.6644 14.8711 24.6026 14.9583 24.519 15.021V15.017Z"
    fill="#e10707"
  ></path>
  <path
    d="M33.977 18.377C34.6813 17.7181 35.1232 16.8265 35.221 15.867C35.1235 14.9071 34.6816 14.0151 33.977 13.356C33.6786 13.0529 33.435 12.7003 33.257 12.314C33.2113 11.8695 33.2452 11.4205 33.357 10.988C33.629 10.085 33.5676 9.11443 33.184 8.25297C32.6251 7.48457 31.809 6.94235 30.884 6.72497C30.4597 6.61038 30.0588 6.42182 29.7 6.16797C29.446 5.81139 29.2564 5.41302 29.14 4.99097C28.9228 4.06569 28.3801 3.24936 27.611 2.69097C26.7496 2.30727 25.7789 2.24588 24.876 2.51797C24.4433 2.62879 23.9945 2.66264 23.55 2.61797C23.164 2.43993 22.8118 2.19632 22.509 1.89797C21.8515 1.19105 20.9602 0.746269 20 0.645966C19.0402 0.743671 18.1482 1.18557 17.489 1.88997C17.1862 2.18832 16.834 2.43193 16.448 2.60997C16.0036 2.65517 15.5546 2.62131 15.122 2.50997C14.2194 2.23786 13.2491 2.29926 12.388 2.68297C11.6183 3.24094 11.0752 4.05739 10.858 4.98297C10.7436 5.40787 10.5546 5.80909 10.3 6.16797C9.94378 6.42221 9.54576 6.61208 9.12401 6.72897C8.19899 6.94618 7.38276 7.48844 6.82401 8.25697C6.44031 9.11841 6.37892 10.089 6.65101 10.992C6.76286 11.4245 6.79672 11.8735 6.75101 12.318C6.57303 12.7043 6.32942 13.0569 6.03101 13.36C5.32416 14.0171 4.87937 14.9081 4.77901 15.868C4.87677 16.8275 5.31868 17.7191 6.02301 18.378C6.32121 18.6813 6.56479 19.0338 6.74301 19.42C6.78872 19.8644 6.75486 20.3134 6.64301 20.746C6.37101 21.6489 6.4324 22.6195 6.81601 23.481C7.37489 24.2494 8.19106 24.7916 9.11601 25.009C9.53777 25.1253 9.93581 25.3149 10.292 25.569C10.5461 25.9255 10.7356 26.3239 10.852 26.746C10.943 26.998 11.044 27.257 11.152 27.514L6.75701 36.732C6.68428 36.8842 6.65127 37.0524 6.66103 37.2208C6.6708 37.3893 6.72303 37.5525 6.81286 37.6954C6.90269 37.8382 7.0272 37.956 7.1748 38.0377C7.32239 38.1195 7.48828 38.1626 7.65701 38.163H16.7C16.8871 38.1636 17.0706 38.1118 17.2297 38.0133C17.3888 37.9148 17.5171 37.7737 17.6 37.606L20 32.734L22.4 37.606C22.4829 37.7737 22.6112 37.9148 22.7703 38.0133C22.9294 38.1118 23.1129 38.1636 23.3 38.163H32.34C32.5087 38.1626 32.6746 38.1195 32.8222 38.0377C32.9698 37.956 33.0943 37.8382 33.1842 37.6954C33.274 37.5525 33.3262 37.3893 33.336 37.2208C33.3457 37.0524 33.3127 36.8842 33.24 36.732L28.835 27.513C28.947 27.256 29.048 26.997 29.135 26.745C29.2526 26.3224 29.4439 25.924 29.7 25.568C30.0562 25.3137 30.4543 25.1239 30.876 25.007C31.801 24.7898 32.6173 24.2475 33.176 23.479C33.5597 22.6175 33.6211 21.6469 33.349 20.744C33.2372 20.3114 33.2033 19.8624 33.249 19.418C33.4297 19.0315 33.6761 18.6793 33.977 18.377ZM16.077 36.163H9.24601L12.6 29.15C13.4148 29.4279 14.2945 29.4533 15.124 29.223C15.5566 29.1096 16.0063 29.0757 16.451 29.123C16.837 29.3006 17.1892 29.5439 17.492 29.842C17.8776 30.1891 18.2994 30.4938 18.75 30.751L16.077 36.163ZM23.919 36.163L21.251 30.752C21.7017 30.4948 22.1234 30.1901 22.509 29.843C22.8118 29.5449 23.164 29.3016 23.55 29.124C23.9944 29.0778 24.4435 29.1116 24.876 29.224C25.7058 29.4548 26.586 29.4294 27.401 29.151L30.752 36.164L23.919 36.163ZM32.447 17.087C31.9424 17.6013 31.5581 18.2212 31.322 18.902C31.1836 19.6282 31.2051 20.3759 31.385 21.093C31.5158 21.543 31.538 22.0176 31.45 22.478C31.306 22.727 30.691 22.949 30.197 23.127C29.4924 23.3263 28.8399 23.6771 28.285 24.155C27.8083 24.7105 27.4585 25.3634 27.26 26.068C27.082 26.562 26.86 27.176 26.611 27.32C26.1511 27.4095 25.6765 27.3872 25.227 27.255C24.5098 27.0759 23.7622 27.0548 23.036 27.193C22.355 27.4287 21.7348 27.8126 21.22 28.317C20.792 28.679 20.307 29.089 20 29.089C19.693 29.089 19.208 28.679 18.78 28.317C18.2653 27.8126 17.645 27.4287 16.964 27.193C16.6999 27.1245 16.4279 27.0909 16.155 27.093C15.6902 27.106 15.2275 27.1595 14.772 27.253C14.3228 27.3848 13.8486 27.4071 13.389 27.318C13.14 27.174 12.918 26.56 12.74 26.066C12.5407 25.3614 12.1898 24.7088 11.712 24.154C11.1572 23.6761 10.5046 23.3253 9.80001 23.126C9.30701 22.948 8.69201 22.726 8.54801 22.478C8.45998 22.0176 8.48226 21.543 8.61301 21.093C8.79288 20.3759 8.81437 19.6282 8.67601 18.902C8.43987 18.2212 8.05564 17.6013 7.55101 17.087C7.18901 16.659 6.77901 16.173 6.77901 15.867C6.77901 15.561 7.18901 15.075 7.55101 14.646C8.05564 14.1316 8.43987 13.5117 8.67601 12.831C8.81437 12.1047 8.79288 11.3571 8.61301 10.64C8.48226 10.1899 8.45998 9.71529 8.54801 9.25497C8.69201 9.00597 9.30701 8.78397 9.80101 8.60597C10.5054 8.40684 11.1576 8.05596 11.712 7.57797C12.1896 7.02371 12.5404 6.37187 12.74 5.66797C12.918 5.17397 13.14 4.55897 13.389 4.41497C13.849 4.32691 14.3233 4.34919 14.773 4.47997C15.4903 4.65835 16.2376 4.67984 16.964 4.54297C17.6449 4.30648 18.265 3.9223 18.78 3.41797C19.208 3.05597 19.694 2.64597 20 2.64597C20.306 2.64597 20.792 3.05597 21.22 3.41797C21.735 3.9223 22.3551 4.30648 23.036 4.54297C23.7624 4.67981 24.5097 4.65832 25.227 4.47997C25.6767 4.34923 26.151 4.32695 26.611 4.41497C26.86 4.55897 27.082 5.17297 27.26 5.66697C27.4593 6.37156 27.8102 7.02411 28.288 7.57897C28.8427 8.05687 29.4953 8.40742 30.2 8.60597C30.693 8.78497 31.308 9.00597 31.452 9.25497C31.54 9.71529 31.5178 10.1899 31.387 10.64C31.2071 11.3571 31.1856 12.1047 31.324 12.831C31.5601 13.5117 31.9444 14.1316 32.449 14.646C32.811 15.075 33.221 15.56 33.221 15.867C33.221 16.174 32.811 16.659 32.449 17.087H32.447Z"
    fill="currentColor"
  ></path>
</svg>
