<svg xmlns="http://www.w3.org/2000/svg" width="1em" height="1em" class="flex-shrink-0 text-lg text-green" viewBox="0 0 32 32" fill="currentColor" aria-hidden="true"><path d="M28 3.5H25.5V2.5C25.5 1.67188 24.8281 1 24 1C23.1719 1 22.5 1.67188 22.5 2.5V3.5H9.5V2.5C9.5 1.67188 8.82812 1 8 1C7.17188 1 6.5 1.67188 6.5 2.5V3.5H4C2.3457 3.5 1 4.8457 1 6.5V9H31V6.5C31 4.8457 29.6543 3.5 28 3.5Z"></path><path d="M1 27.5C1 29.1543 2.3457 30.5 4 30.5H28C29.6543 30.5 31 29.1543 31 27.5V12H1V27.5ZM23 16H25C25.8281 16 26.5 16.6719 26.5 17.5C26.5 18.3281 25.8281 19 25 19H23C22.1719 19 21.5 18.3281 21.5 17.5C21.5 16.6719 22.1719 16 23 16ZM23 23.0566H25C25.8281 23.0566 26.5 23.7285 26.5 24.5566C26.5 25.3848 25.8281 26.0566 25 26.0566H23C22.1719 26.0566 21.5 25.3848 21.5 24.5566C21.5 23.7285 22.1719 23.0566 23 23.0566ZM15 16H17C17.8281 16 18.5 16.6719 18.5 17.5C18.5 18.3281 17.8281 19 17 19H15C14.1719 19 13.5 18.3281 13.5 17.5C13.5 16.6719 14.1719 16 15 16ZM15 23.0566H17C17.8281 23.0566 18.5 23.7285 18.5 24.5566C18.5 25.3848 17.8281 26.0566 17 26.0566H15C14.1719 26.0566 13.5 25.3848 13.5 24.5566C13.5 23.7285 14.1719 23.0566 15 23.0566ZM7 16H9C9.82812 16 10.5 16.6719 10.5 17.5C10.5 18.3281 9.82812 19 9 19H7C6.17188 19 5.5 18.3281 5.5 17.5C5.5 16.6719 6.17188 16 7 16ZM7 23.0566H9C9.82812 23.0566 10.5 23.7285 10.5 24.5566C10.5 25.3848 9.82812 26.0566 9 26.0566H7C6.17188 26.0566 5.5 25.3848 5.5 24.5566C5.5 23.7285 6.17188 23.0566 7 23.0566Z"></path></svg>