<svg
  xmlns="http://www.w3.org/2000/svg"
  width="1em"
  height="1em"
  class="inline-block text-3xl"
  viewBox="0 0 40 40"
  fill="currentColor"
  aria-hidden="true"
>
  <path
    d="M30.0945 28.4504C29.6716 28.4504 29.2583 28.5758 28.9067 28.8107C28.5551 29.0456 28.281 29.3795 28.1192 29.7702C27.9574 30.1609 27.9151 30.5908 27.9976 31.0055C28.0801 31.4202 28.2837 31.8012 28.5827 32.1002C28.8817 32.3992 29.2626 32.6028 29.6774 32.6853C30.0921 32.7678 30.522 32.7255 30.9127 32.5636C31.3033 32.4018 31.6372 32.1278 31.8722 31.7762C32.1071 31.4246 32.2325 31.0112 32.2325 30.5884C32.2325 30.0213 32.0072 29.4775 31.6063 29.0766C31.2053 28.6756 30.6615 28.4504 30.0945 28.4504Z"
    fill="#e10707"
  ></path>
  <path
    d="M13.2325 30.5884C13.2325 30.1655 13.1071 29.7522 12.8722 29.4006C12.6372 29.049 12.3033 28.7749 11.9127 28.6131C11.522 28.4513 11.0921 28.409 10.6774 28.4915C10.2626 28.574 9.88169 28.7776 9.58269 29.0766C9.28368 29.3756 9.08006 29.7565 8.99756 30.1713C8.91507 30.586 8.95741 31.0159 9.11923 31.4066C9.28105 31.7972 9.55508 32.1311 9.90667 32.3661C10.2583 32.601 10.6716 32.7264 11.0945 32.7264C11.6615 32.7264 12.2053 32.5011 12.6063 32.1002C13.0072 31.6992 13.2325 31.1554 13.2325 30.5884Z"
    fill="#e10707"
  ></path>
  <path
    d="M19.5945 3.45038H11.5945C10.0037 3.45197 8.47847 4.08462 7.3536 5.20949C6.22872 6.33437 5.59607 7.85957 5.59448 9.45038C5.59448 9.71559 5.69984 9.96995 5.88738 10.1575C6.07491 10.345 6.32927 10.4504 6.59448 10.4504H24.5945C24.8597 10.4504 25.1141 10.345 25.3016 10.1575C25.4891 9.96995 25.5945 9.71559 25.5945 9.45038C25.5929 7.85957 24.9602 6.33437 23.8354 5.20949C22.7105 4.08462 21.1853 3.45197 19.5945 3.45038Z"
    fill="#e10707"
  ></path>
  <path
    d="M37.5705 20.7944L31.5585 18.7244C31.3516 18.6529 31.1737 18.516 31.0515 18.3344L28.0205 13.7864C27.747 13.375 27.376 13.0377 26.9404 12.8046C26.5049 12.5715 26.0185 12.4498 25.5245 12.4504H7.03548C5.70989 12.452 4.43904 12.9793 3.5017 13.9166C2.56437 14.8539 2.03707 16.1248 2.03548 17.4504V28.4504C2.03548 29.246 2.35155 30.0091 2.91416 30.5717C3.47677 31.1343 4.23983 31.4504 5.03548 31.4504H5.66848C5.87225 32.743 6.53079 33.9204 7.52554 34.7707C8.52029 35.6209 9.78589 36.0881 11.0945 36.0881C12.4031 36.0881 13.6687 35.6209 14.6634 34.7707C15.6582 33.9204 16.3167 32.743 16.5205 31.4504H24.6685C24.8722 32.743 25.5308 33.9204 26.5255 34.7707C27.5203 35.6209 28.7859 36.0881 30.0945 36.0881C31.4031 36.0881 32.6687 35.6209 33.6634 34.7707C34.6582 33.9204 35.3167 32.743 35.5205 31.4504H36.5945C37.3901 31.4504 38.1532 31.1343 38.7158 30.5717C39.2784 30.0091 39.5945 29.246 39.5945 28.4504V23.6304C39.5943 23.0058 39.3992 22.3968 39.0364 21.8884C38.6736 21.38 38.1611 20.9976 37.5705 20.7944ZM26.3565 14.8944L28.7245 18.4504H18.5945V14.4504H25.5245C25.6891 14.4504 25.8511 14.491 25.9963 14.5686C26.1414 14.6462 26.2651 14.7585 26.3565 14.8954V14.8944ZM4.03548 17.4504C4.03548 16.6547 4.35155 15.8917 4.91416 15.3291C5.47677 14.7665 6.23983 14.4504 7.03548 14.4504H16.5945V18.4504H4.03548V17.4504ZM11.0945 34.0884C10.4022 34.0884 9.72556 33.8831 9.14999 33.4985C8.57442 33.1139 8.12581 32.5673 7.86091 31.9278C7.596 31.2882 7.52669 30.5845 7.66174 29.9056C7.79678 29.2266 8.13013 28.603 8.61961 28.1135C9.10909 27.624 9.73273 27.2907 10.4117 27.1556C11.0906 27.0206 11.7943 27.0899 12.4339 27.3548C13.0734 27.6197 13.62 28.0683 14.0046 28.6439C14.3892 29.2195 14.5945 29.8961 14.5945 30.5884C14.5945 31.5166 14.2257 32.4069 13.5694 33.0633C12.913 33.7196 12.0227 34.0884 11.0945 34.0884ZM30.0945 34.0884C29.4023 34.0884 28.7256 33.8831 28.15 33.4985C27.5744 33.1139 27.1258 32.5673 26.8609 31.9278C26.596 31.2882 26.5267 30.5845 26.6617 29.9056C26.7968 29.2266 27.1301 28.603 27.6196 28.1135C28.1091 27.624 28.7327 27.2907 29.4117 27.1556C30.0906 27.0206 30.7943 27.0899 31.4339 27.3548C32.0734 27.6197 32.62 28.0683 33.0046 28.6439C33.3892 29.2195 33.5945 29.8961 33.5945 30.5884C33.5945 31.5166 33.2257 32.4069 32.5694 33.0633C31.913 33.7196 31.0227 34.0884 30.0945 34.0884ZM37.5945 28.4504C37.5945 28.7156 37.4891 28.97 37.3016 29.1575C37.1141 29.345 36.8597 29.4504 36.5945 29.4504H35.4745C35.2127 28.2176 34.5354 27.1122 33.5561 26.319C32.5768 25.5258 31.3547 25.093 30.0945 25.093C28.8342 25.093 27.6122 25.5258 26.6329 26.319C25.6535 27.1122 24.9763 28.2176 24.7145 29.4504H16.4745C16.2127 28.2176 15.5354 27.1122 14.5561 26.319C13.5768 25.5258 12.3547 25.093 11.0945 25.093C9.83423 25.093 8.61221 25.5258 7.63287 26.319C6.65354 27.1122 5.9763 28.2176 5.71448 29.4504H5.03548C4.77027 29.4504 4.51591 29.345 4.32838 29.1575C4.14084 28.97 4.03548 28.7156 4.03548 28.4504V20.4504H30.5355C30.6566 20.5137 30.7819 20.5689 30.9105 20.6154L36.9225 22.6844C37.119 22.7526 37.2893 22.8804 37.4097 23.0499C37.5302 23.2195 37.5948 23.4224 37.5945 23.6304V28.4504Z"
    fill="#000"
  ></path>
</svg>
