<?xml version="1.0" encoding="utf-8"?>
<!-- Generator: Adobe Illustrator 24.0.1, SVG Export Plug-In . SVG Version: 6.00 Build 0)  -->
<svg version="1.1" id="Capa_1" xmlns="http://www.w3.org/2000/svg" xmlns:xlink="http://www.w3.org/1999/xlink" x="0px" y="0px"
	 viewBox="0 0 7679 7678" style="enable-background:new 0 0 7679 7678;" xml:space="preserve">
<style type="text/css">
	.st0{fill:#C40707;}
	.st1{fill:#FFFFFF;}
</style>
<path class="st0" d="M3839.5,7678L3839.5,7678c-2120.2,0-3839-1718.8-3839-3839l0,0C0.5,1718.8,1719.3,0,3839.5,0l0,0
	c2120.2,0,3839,1718.8,3839,3839l0,0C7678.5,5959.2,5959.7,7678,3839.5,7678z"/>
<g>
	<path class="st1" d="M3349.2,1325.5c-415.9,11.5-817,124-1177.5,330.2c-302.1,172.7-569.3,410.9-776.6,692.2
		c-148.2,201.1-265.1,421.7-347.7,656.5c-111.6,317.1-157.9,654.5-136.7,995.5c18.5,296.3,90.3,589.5,210.8,860
		c41.6,93.4,89.1,184.9,140.5,270.5c85.6,142.6,185.6,277.2,297.2,400c54,59.4,128.4,133,188.8,186.8
		c236.5,210.6,508.7,373.8,805.7,483.2c34.9,12.9,111.1,38.1,147.5,48.9c235.4,69.7,473.3,104.1,719.5,104.1
		c321.4-0.1,633.2-59.8,930-178c256.7-102.3,498-249,708.4-430.5c9.6-8.2,17.9-15.3,18.5-15.7c0.6-0.4,0.8-1,0.5-1.3
		c-0.4-0.3-8.7,3.1-18.5,7.6c-214,97.1-448.8,158-683.9,177.4c-97.3,8-205.2,9-302.5,3c-332.7-20.8-652.6-119.9-937-290.5
		c-123.7-74.2-232.9-155.7-342-255.4c-40.4-37-112.1-110.3-152.1-155.6c-158.6-179.5-285.8-387.2-374.4-611
		c-160.7-405.9-188.9-858-79.9-1283c78.3-305.5,226.9-591,432.8-832c63.4-74.2,140.4-152.1,213.9-216.3
		c278.3-243.5,616.4-408.5,977.7-477.2c94.7-18,186.2-28.9,290.5-34.5c31.8-1.8,135.7-2.4,171.5-1.1
		c222.6,8.2,429.4,48.1,636.5,122.8c47.3,17.1,107.6,41.6,149.5,60.7c7.9,3.6,14.8,6.5,15.3,6.3c0.9-0.3-33.3-29.8-58.8-50.8
		C4545.9,1510.3,3958.4,1308.5,3349.2,1325.5z"/>
	<path class="st1" d="M5591.3,2882.4c-0.3,3-18.9,154.6-41.2,336.9c-22.2,182.3-40.7,332-40.9,332.6c-0.3,0.5-135.7,71.7-301.2,158
		c-165.4,86.3-300.8,157.3-301.1,157.8c-0.2,0.5,5.9,3.8,13.5,7.3c7.7,3.6,146.2,68,307.9,143.3c207.1,96.5,294.2,137.5,294.7,138.9
		c0.4,1,25.9,151.7,56.8,334.6c30.8,183,56.3,333.1,56.7,333.7c0.4,0.5,97.4-103,220.9-235.5c121.1-130,225.5-242,231.8-248.8
		l11.5-12.4l336.4,49.8c197.6,29.4,336.3,49.4,336.3,48.7c0-0.7-73.8-133.9-163.9-296.2c-90-162.3-164-295.9-164.4-297
		c-0.4-1.2,48.5-100.8,150.7-306.3c83.3-167.4,151.1-304.6,150.9-304.6c-0.3-0.1-150.5,29-333.9,64.8
		c-183.4,35.7-333.9,64.7-334.5,64.5c-0.5-0.3-109.7-107.3-242.6-237.6c-132.8-130.3-242-237.3-242.6-237.6
		S5591.7,2879.4,5591.3,2882.4z"/>
</g>
</svg>
