<?xml version="1.0" encoding="iso-8859-1"?>
<!-- Uploaded to: SVG Repo, www.svgrepo.com, Generator: SVG Repo Mixer Tools -->
<svg fill="#000000" height="800px" width="800px" version="1.1" id="Layer_1" xmlns="http://www.w3.org/2000/svg" xmlns:xlink="http://www.w3.org/1999/xlink" 
	 viewBox="0 0 512 512" xml:space="preserve">
<g>
	<g>
		<path d="M501.333,74.667H10.667C4.779,74.667,0,79.445,0,85.333v341.333c0,5.888,4.779,10.667,10.667,10.667h64
			c5.888,0,10.667-4.779,10.667-10.667c0-1.515,0.555-3.179,1.771-5.227c2.005-3.349,2.005-7.552,0-10.901
			c-1.216-2.027-1.771-3.691-1.771-5.205c0-5.888,4.779-10.667,10.667-10.667s10.667,4.779,10.667,10.667
			c0,1.515-0.555,3.179-1.771,5.227c-2.005,3.349-2.005,7.552,0,10.901c1.216,2.027,1.771,3.691,1.771,5.205
			c0,5.888,4.779,10.667,10.667,10.667h64c5.888,0,10.667-4.779,10.667-10.667c0-1.515,0.555-3.179,1.771-5.227
			c2.005-3.349,2.005-7.552,0-10.901c-1.216-2.027-1.771-3.691-1.771-5.205c0-5.888,4.779-10.667,10.667-10.667
			s10.667,4.779,10.667,10.667c0,1.515-0.555,3.179-1.771,5.227c-2.005,3.349-2.005,7.552,0,10.901
			c1.216,2.027,1.771,3.691,1.771,5.205c0,5.888,4.779,10.667,10.667,10.667h64c5.888,0,10.667-4.779,10.667-10.667
			c0-1.515,0.555-3.179,1.771-5.227c2.005-3.349,2.005-7.552,0-10.901c-1.216-2.027-1.771-3.691-1.771-5.205
			c0-5.888,4.779-10.667,10.667-10.667S320,399.445,320,405.333c0,1.515-0.555,3.179-1.771,5.227c-2.005,3.349-2.005,7.552,0,10.901
			c1.216,2.027,1.771,3.691,1.771,5.205c0,5.888,4.779,10.667,10.667,10.667h64c5.888,0,10.667-4.779,10.667-10.667
			c0-1.515,0.555-3.179,1.771-5.227c2.005-3.349,2.005-7.552,0-10.901c-1.216-2.027-1.771-3.691-1.771-5.205
			c0-5.888,4.779-10.667,10.667-10.667c5.888,0,10.667,4.779,10.667,10.667c0,1.515-0.555,3.179-1.771,5.227
			c-2.005,3.349-2.005,7.552,0,10.901c1.216,2.027,1.771,3.691,1.771,5.205c0,5.888,4.779,10.667,10.667,10.667h64
			c5.888,0,10.667-4.779,10.667-10.667V85.333C512,79.445,507.221,74.667,501.333,74.667z M266.667,352H53.333
			c-5.888,0-10.667-4.779-10.667-10.667c0-26.752,18.112-49.963,44.053-56.448l32.021-8l1.557-6.272
			c-7.787-8.939-13.333-20.203-15.765-31.829c-6.507-2.837-10.923-8.597-11.797-15.552l-2.325-18.56
			c-0.704-5.696,1.067-11.392,4.843-15.68c1.259-1.429,2.709-2.645,4.288-3.648c-0.597-5.504-1.237-12.096-1.237-15.616
			c0-17.856,5.163-41.515,49.067-43.072c14.912-9.323,30.251-9.323,37.035-9.323c23.061,0,34.581,10.197,40.171,18.731
			c11.797,18.005,4.352,30.485-1.152,36.331l-1.963,1.963l-0.555,11.307c1.429,0.96,2.752,2.112,3.904,3.435
			c3.712,4.267,5.461,9.941,4.757,15.552l-2.325,18.56c-0.853,6.72-4.992,12.331-10.667,15.253
			c-2.453,12.16-8.341,23.851-16.661,33.024l1.344,5.355l32.021,8c25.941,6.485,44.053,29.675,44.053,56.427
			C277.333,347.2,272.555,352,266.667,352z M458.667,309.333H309.333c-5.888,0-10.667-4.779-10.667-10.667S303.445,288,309.333,288
			h149.333c5.888,0,10.667,4.779,10.667,10.667S464.555,309.333,458.667,309.333z M298.667,234.667
			c0-5.888,4.779-10.667,10.667-10.667h85.333c5.888,0,10.667,4.779,10.667,10.667s-4.779,10.667-10.667,10.667h-85.333
			C303.445,245.333,298.667,240.555,298.667,234.667z M458.667,181.333H309.333c-5.888,0-10.667-4.779-10.667-10.667
			S303.445,160,309.333,160h149.333c5.888,0,10.667,4.779,10.667,10.667S464.555,181.333,458.667,181.333z"/>
	</g>
</g>
</svg>