<?xml version="1.0" encoding="utf-8" ?>
<svg xmlns="http://www.w3.org/2000/svg" xmlns:xlink="http://www.w3.org/1999/xlink" width="512" height="513">
	<path fill="#E10707" transform="scale(1 1.00195)" d="M251.662 3.34948C256.453 3.55517 261.378 3.25637 266.188 3.33157C314.174 4.08166 369.29 24.2254 406.932 52.7992C472.858 102.843 512.402 184.497 507.257 267.396L505.948 279.67C501.569 317.389 489.198 354.248 469.375 386.695C439.174 436.129 390.1 474.923 335.003 493.041C312.629 500.399 286.421 505.514 263.062 506.016L260.475 506.084C164.094 508.39 69.3162 447.271 29.4352 360.01C-2.37648 290.406 0.0565634 210.11 34.2959 142C42.6818 125.318 53.3854 109.914 65.3245 95.5984L78.323 80.7849C121.994 35.2312 188.04 4.72348 251.662 3.34948ZM251.531 61.1346C226.865 62.0822 206.241 66.4432 183.764 76.3677C113.723 107.295 69.3494 170.239 65.8623 247.839L100.216 247.669C101.479 247.641 102.918 247.482 104.167 247.646C109.494 248.346 111.513 258.744 104.708 258.838L76.6374 258.781C73.1848 258.782 69.4261 258.486 66.0094 258.924L66.0565 259.185C66.674 262.868 66.4327 266.783 66.7414 270.518C69.6708 305.967 81.633 335.831 101.269 364.841C131.264 409.155 178.734 437.399 231.625 445.246L244.205 446.64C246.757 446.828 249.339 446.824 251.879 447.145L251.917 410.307C251.989 396.727 261.885 399.421 262.595 405.109C263.072 408.935 262.699 413.16 262.691 417.041L262.262 446.002L262.375 446.529C268.027 448.036 291.985 443.898 298.13 442.514C380.048 424.072 438.203 354.631 446.231 271.178L446.738 262.626C446.778 261.408 446.631 259.968 446.904 258.784L412.597 258.818C401.734 258.872 401.358 249.508 409.988 248.187C414.465 247.502 419.301 247.796 423.829 247.781L446.467 247.393C445.681 241.563 445.655 235.518 445.123 229.643C443.288 209.401 437.57 190.266 428.845 171.91C397.654 106.287 335.86 61.853 262.777 61.3273L262.691 90.5049C262.687 95.1361 262.989 99.974 262.509 104.569C261.804 111.315 251.978 111.423 251.911 100.25L251.944 65.1538C251.948 64.6875 252.07 61.2198 251.531 61.1346ZM246.732 14.9352C150.123 18.1539 61.9996 85.7365 30.6323 176.839C20.644 205.848 17.3931 236.428 18.807 266.948C18.9112 269.198 18.9866 281.366 19.873 282.978C19.8791 281.444 19.6722 279.963 19.6587 278.439L19.7521 256.875C19.8085 254.834 20.1651 252.869 20.2976 250.844L21.6308 233.875C24.7793 206.846 32.117 181.495 43.8651 157.075C79.9077 82.154 138.529 37.8569 218.217 20.9239L243.838 16.694C246.872 16.3308 250.082 15.778 253.132 15.7205C254.687 15.353 256.405 15.3856 258 15.197L246.732 14.9352ZM264.123 458.161C263.894 459.118 263.6 459.536 263.002 460.286C269.295 460.288 275.023 459.995 281.246 459.226C329.412 453.271 370.974 434.053 404.972 398.678C437.802 364.518 460.777 313.618 462.036 265.719C462.157 261.108 463.35 258.699 458.261 257.534C457.767 258.283 457.918 259.152 457.89 260.04C454.616 361.795 379.252 444.286 278.674 456.7L264.123 458.161Z"/>
	<path fill="#FF876D" transform="scale(1 1.00195)" d="M246.732 14.791L265.696 14.7538C268.729 15.7509 265.792 15.0075 263.602 15.6538L253.132 15.7204C254.687 15.353 256.405 15.3856 258 15.197L246.732 14.791Z"/>
	<path fill="#FFB0B0" transform="scale(1 1.00195)" d="M248.504 459.511L227.5 456.638C227.112 456.531 227.03 456.466 226.85 456.125L248.706 458.453L248.504 459.511Z"/>
	<defs>
		<linearGradient id="gradient_0" gradientUnits="userSpaceOnUse" x1="253.54504" y1="456.89441" x2="261.43515" y2="461.23215">
			<stop offset="0" stop-color="#FFD8D5"/>
			<stop offset="1" stop-color="#FFFCFB"/>
		</linearGradient>
	</defs>
	<path fill="url(#gradient_0)" transform="scale(1 1.00195)" d="M248.706 458.445L259.131 458.52C260.487 458.485 262.93 457.966 264.123 458.4C263.894 459.118 263.6 459.536 263.002 460.304L248.504 459.511L248.706 458.445Z"/>
	<defs>
		<linearGradient id="gradient_1" gradientUnits="userSpaceOnUse" x1="283.29779" y1="14.21504" x2="282.27246" y2="18.491871">
			<stop offset="0" stop-color="#FF3923"/>
			<stop offset="1" stop-color="#F4695E"/>
		</linearGradient>
	</defs>
	<path fill="url(#gradient_1)" transform="scale(1 1.00195)" d="M265.696 14.7359C286.853 14.7507 306.674 17.7417 327.123 23.625C326.051 23.863 324.392 23.3445 323.377 22.9982L309.066 19.6606C307.409 19.214 305.676 19.0792 304 18.75L303.012 18.6132C301.706 18.4193 297.983 17.0935 297.375 18.5C299.651 18.6397 302.429 19.2116 304.625 19.75L307.125 20.25C308.028 20.4713 308.98 20.5305 309.875 20.75L313.625 21.5C314.073 21.6098 314.41 21.6068 314.875 21.75L317.055 22.1797C317.666 22.3019 318.317 22.4345 318.918 22.5816L327.184 24.8086C328.347 25.0413 329.685 25.5162 330.812 25.9375L334.211 27.0633C337.229 28.0692 328.72 25.6034 328.176 25.4479L305.125 20.2218C289.42 17.2758 279.601 15.6642 263.602 15.7203C265.792 15.0075 268.729 15.7509 265.696 14.7359Z"/>
	<path fill="#E10707" transform="scale(1 1.00195)" d="M359.647 142.504C362.53 142.392 365.602 144.465 366.458 147.25C367.214 149.708 364.008 153.45 362.679 155.365L321.616 211.739C313.386 222.919 305.794 234.777 296.6 245.204C295.219 246.769 295.433 246.311 295.946 248.265C297.857 255.542 295.678 265.359 292.468 271.897L291.51 273.75C284.275 287.231 268.386 295.988 253.059 295.217C250.475 295.087 249.751 294.335 247.686 295.976L190.589 336.089L161.753 357.126C158.392 359.661 155.261 362.015 151.244 363.406C146.972 364.223 142.631 360.282 144.194 355.864C145.184 353.068 148.318 350.337 150.125 347.96L214.774 261.071C216.004 259.655 215.329 259.191 215.26 257.361C214.314 232.41 232.096 214.581 256.786 212.065C257.859 211.956 259.312 211.458 260.352 211.693L261.027 211.914C261.581 212.089 262.908 210.892 263.404 210.53L331.286 162.82L349.994 148.909C353.085 146.659 356.178 144.128 359.647 142.504ZM220.785 271.79L175.375 332.801C183.62 327.127 191.147 318.701 196.981 310.613L208.29 293.956C212.766 287.716 218.018 281.37 221.693 274.639C221.703 273.725 221.116 272.65 220.785 271.79ZM324.761 180.625L282.601 209.774C279.506 211.977 276.466 214.285 273.053 215.986C273.989 216.396 274.918 216.778 275.783 217.326L278.149 219.426C281.031 216.794 284.22 214.49 287.274 212.063L305.645 197.483C312.303 192.229 319.364 186.839 325.17 180.642L324.761 180.625ZM282.543 242.093C283.998 251.973 282.682 261.821 276.625 269.978C271.744 276.55 262.406 282.036 253.953 281.523L253.919 282.374C259.614 282.336 264.715 282.411 270.016 279.972C279.58 275.572 287.229 262.045 285.656 251.383C285.168 248.074 283.869 245.089 282.543 242.093Z"/>
</svg>
