<svg
  xmlns="http://www.w3.org/2000/svg"
  width="1em"
  height="1em"
  class="inline-block text-3xl"
  viewBox="0 0 40 40"
  fill="currentColor"
  aria-hidden="true"
>
  <path
    d="M12.6255 20.7494C12.7691 22.2705 13.3453 23.7186 14.2859 24.9226C15.2266 26.1266 16.4923 27.036 17.9335 27.5434C16.7963 25.4603 16.2069 23.1225 16.2205 20.7494H12.6255Z"
    fill="#e10707"
  ></path>
  <path
    d="M17.7195 20.7494C17.8775 24.8724 19.3075 27.8704 20.5945 27.8704C21.8815 27.8704 23.3115 24.8704 23.4695 20.7494H17.7195Z"
    fill="#e10707"
  ></path>
  <path
    d="M23.4695 19.2494C23.3115 15.1264 21.8815 12.1284 20.5945 12.1284C19.3075 12.1284 17.8775 15.1284 17.7195 19.2494H23.4695Z"
    fill="#e10707"
  ></path>
  <path
    d="M17.9335 12.4554C16.4926 12.9632 15.2272 13.8728 14.2867 15.0767C13.3461 16.2806 12.7697 17.7284 12.6255 19.2494H16.2205C16.207 16.8762 16.7965 14.5385 17.9335 12.4554Z"
    fill="#e10707"
  ></path>
  <path
    d="M23.2555 27.5434C24.6966 27.036 25.9624 26.1266 26.903 24.9226C27.8437 23.7186 28.4199 22.2705 28.5635 20.7494H24.9635C24.9786 23.1221 24.3909 25.4598 23.2555 27.5434Z"
    fill="#e10707"
  ></path>
  <path
    d="M28.5635 19.2494C28.4193 17.7284 27.8428 16.2806 26.9023 15.0767C25.9617 13.8728 24.6963 12.9632 23.2555 12.4554C24.3925 14.5385 24.9819 16.8762 24.9685 19.2494H28.5635Z"
    fill="#e10707"
  ></path>
  <path
    d="M29.9945 6.32837V6.27537C29.9946 5.48414 29.8069 4.70419 29.4468 3.99963C29.0868 3.29506 28.5647 2.686 27.9234 2.22251C27.2822 1.75901 26.5401 1.45432 25.7581 1.33347C24.9762 1.21263 24.1767 1.27908 23.4255 1.52737L8.61748 6.41037C8.60648 6.41037 8.59948 6.42337 8.58748 6.42737C7.95324 6.59884 7.39282 6.97379 6.99231 7.49462C6.59179 8.01545 6.37334 8.65335 6.37048 9.31037V35.9344C6.37048 36.73 6.68655 37.4931 7.24916 38.0557C7.81177 38.6183 8.57483 38.9344 9.37048 38.9344H29.8185C31.1441 38.9328 32.4149 38.4055 33.3523 37.4681C34.2896 36.5308 34.8169 35.26 34.8185 33.9344V11.3104C34.8146 10.0173 34.31 8.77608 33.4105 7.84715C32.5111 6.91823 31.2867 6.37388 29.9945 6.32837ZM24.0565 3.42837C24.5069 3.2801 24.986 3.24072 25.4546 3.31345C25.9232 3.38618 26.3678 3.56895 26.7521 3.84676C27.1364 4.12458 27.4494 4.48953 27.6653 4.91169C27.8813 5.33384 27.9941 5.80118 27.9945 6.27537V6.31037H15.3045L24.0565 3.42837ZM32.8185 33.9344C32.8185 34.73 32.5024 35.4931 31.9398 36.0557C31.3772 36.6183 30.6141 36.9344 29.8185 36.9344H9.37048C9.10527 36.9344 8.85091 36.829 8.66338 36.6415C8.47584 36.4539 8.37048 36.1996 8.37048 35.9344V9.31037C8.37048 9.04515 8.47584 8.7908 8.66338 8.60326C8.85091 8.41572 9.10527 8.31037 9.37048 8.31037H29.8185C30.6141 8.31037 31.3772 8.62644 31.9398 9.18905C32.5024 9.75165 32.8185 10.5147 32.8185 11.3104V33.9344Z"
    fill="currentColor"
  ></path>
  <path
    d="M27.0165 31.6443H14.1725C13.9073 31.6443 13.6529 31.7497 13.4654 31.9372C13.2778 32.1248 13.1725 32.3791 13.1725 32.6443C13.1725 32.9096 13.2778 33.1639 13.4654 33.3515C13.6529 33.539 13.9073 33.6443 14.1725 33.6443H27.0165C27.2817 33.6443 27.5361 33.539 27.7236 33.3515C27.9111 33.1639 28.0165 32.9096 28.0165 32.6443C28.0165 32.3791 27.9111 32.1248 27.7236 31.9372C27.5361 31.7497 27.2817 31.6443 27.0165 31.6443Z"
    fill="#000"
  ></path>
</svg>
