<svg id="Capa_1" data-name="Capa 1" xmlns="http://www.w3.org/2000/svg" viewBox="0 0 107.1 137.42"><defs><style>.cls-1{fill:#6a4e2a;}.cls-2{fill:#fff;}.cls-3{fill:#d49c54;}.cls-4{fill:#bf8c4c;}</style></defs><title>chopsticks</title><path class="cls-1" d="M57.26,94.41a17.84,17.84,0,0,1,3.68-4.59l1.24,1a26,26,0,0,0,2.31,2L70,97.12a2.73,2.73,0,0,0,.43.33,1.69,1.69,0,0,1,.43.49c0,.47-3,4-3.45,4.6Z" transform="translate(-23.95 -7.65)"/><path class="cls-2" d="M26,132.82A12.34,12.34,0,0,0,27.11,134l2.29,2c2,1.73,5.22,4.69,7.64,5.81-2.84,3.82-7.94,4.62-11.24.88l-.16-.17A7.26,7.26,0,0,1,26,132.82Z" transform="translate(-23.95 -7.65)"/><path class="cls-2" d="M128.56,132.89a7.34,7.34,0,0,1,2.06,4.93c.25,5.9-7.5,9.55-11.86,5.6l-.1-.08a11,11,0,0,1-1.5-1.83C120.34,139.61,126.07,135.72,128.56,132.89Z" transform="translate(-23.95 -7.65)"/><path class="cls-1" d="M57.26,94.41l10.13,8.13a17.89,17.89,0,0,1-2.25,2.94,29.8,29.8,0,0,1-3.52,4.57,11.67,11.67,0,0,0-2.08-2l-5.89-4.57a25.42,25.42,0,0,0-2.37-1.62,20.52,20.52,0,0,1,3.56-4.36Z" transform="translate(-23.95 -7.65)"/><path class="cls-3" d="M57.26,94.41l10.13,8.13a17.89,17.89,0,0,1-2.25,2.94,47.81,47.81,0,0,0-5.26-4.1c-1.67-1.26-3.28-2.69-5-3.83Z" transform="translate(-23.95 -7.65)"/><path class="cls-1" d="M93,90.56l1-.71,2.18,2.88a8,8,0,0,1,1.27,1.86l2.17,2.66A84.15,84.15,0,0,1,93,102.63l-2.34,1.71a6.27,6.27,0,0,1-1.25.79,16.29,16.29,0,0,1-2.15-2.62L83.65,98a2.89,2.89,0,0,1,.6-.61,42.52,42.52,0,0,0,3.63-2.82L91,92.15A25,25,0,0,0,93,90.56Z" transform="translate(-23.95 -7.65)"/><path class="cls-4" d="M87.22,102.51a14.77,14.77,0,0,1,1.5-1.34,79.77,79.77,0,0,1,8.73-6.58l2.17,2.66A84.15,84.15,0,0,1,93,102.63l-2.34,1.71a6.27,6.27,0,0,1-1.25.79A16.29,16.29,0,0,1,87.22,102.51Z" transform="translate(-23.95 -7.65)"/><path class="cls-1" d="M49.14,104.54a6.38,6.38,0,0,1,.53-.66l1.61-2a25.42,25.42,0,0,1,2.37,1.62l5.89,4.57a11.67,11.67,0,0,1,2.08,2,16.38,16.38,0,0,1-2.15,2.9,19.51,19.51,0,0,1-1.28,1.71L56,117.32l-9.22-7.52a6.78,6.78,0,0,0-1.2-.8v-.06C45.7,108.11,48.32,105.23,49.14,104.54Z" transform="translate(-23.95 -7.65)"/><path class="cls-3" d="M49.14,104.54a6.38,6.38,0,0,1,.53-.66l1.61-2a25.42,25.42,0,0,1,2.37,1.62l5.89,4.57a11.67,11.67,0,0,1,2.08,2,16.38,16.38,0,0,1-2.15,2.9,31.32,31.32,0,0,0-3.7-3l-4.39-3.5A10.19,10.19,0,0,1,49.14,104.54Z" transform="translate(-23.95 -7.65)"/><path class="cls-1" d="M45.59,109a6.78,6.78,0,0,1,1.2.8L56,117.32,54,120a29.06,29.06,0,0,1-3.66,4.58,23.49,23.49,0,0,0-3.54-3.21l-4-3a22.44,22.44,0,0,0-3.14-2.2l2.12-2.75a11.68,11.68,0,0,1,1.61-1.76A6.74,6.74,0,0,0,45.59,109Z" transform="translate(-23.95 -7.65)"/><path class="cls-3" d="M45.59,109a6.78,6.78,0,0,1,1.2.8L56,117.32,54,120l-7.68-5.78a20.79,20.79,0,0,1-2.93-2.6A6.74,6.74,0,0,0,45.59,109Z" transform="translate(-23.95 -7.65)"/><path class="cls-1" d="M37.63,118.66a13.21,13.21,0,0,0,2-2.49,22.44,22.44,0,0,1,3.14,2.2l4,3a23.49,23.49,0,0,1,3.54,3.21l-2.08,2.85L46,130.37a8,8,0,0,1-1.22,1.48c-1-1.46-5.13-4.36-6.59-5.51l-3.08-2.57L34.2,123a6.92,6.92,0,0,1,1.52-2.22Z" transform="translate(-23.95 -7.65)"/><path class="cls-3" d="M37.63,118.66a13.21,13.21,0,0,0,2-2.49,22.44,22.44,0,0,1,3.14,2.2l4,3a23.49,23.49,0,0,1,3.54,3.21l-2.08,2.85a10.92,10.92,0,0,1-1.64-1.27l-8.44-6.87A2.77,2.77,0,0,1,37.63,118.66Z" transform="translate(-23.95 -7.65)"/><path class="cls-4" d="M82,77.44a23.57,23.57,0,0,1,2.2,2.76l5.68,7.2A16.34,16.34,0,0,0,93,90.56a25,25,0,0,1-2,1.59l-3.1,2.38a42.52,42.52,0,0,1-3.63,2.82c-.35-.52-.62-1.1-1-1.62L74.92,84a16.07,16.07,0,0,1,1.69-1.49A63.64,63.64,0,0,0,82,77.44Z" transform="translate(-23.95 -7.65)"/><path class="cls-1" d="M109.08,108.86c.6,1,1.67,1.88,2.14,2.72a26.92,26.92,0,0,1,3.55,4.36l2.06,2.54a5.39,5.39,0,0,1-1.29,1.32l-6.5,5c-1,.71-2.06,1.34-3,2.12-.71-.93-1.65-1.7-2.29-2.66L100.5,120,98.15,117Z" transform="translate(-23.95 -7.65)"/><path class="cls-4" d="M114.77,115.94l2.06,2.54a5.39,5.39,0,0,1-1.29,1.32l-6.5,5c-1,.71-2.06,1.34-3,2.12-.71-.93-1.65-1.7-2.29-2.66a6,6,0,0,1,.68-.54Z" transform="translate(-23.95 -7.65)"/><path class="cls-4" d="M109.08,108.86c.6,1,1.67,1.88,2.14,2.72L100.5,120,98.15,117Z" transform="translate(-23.95 -7.65)"/><path class="cls-1" d="M34.2,123l.95.81,3.08,2.57c1.46,1.15,5.63,4,6.59,5.51l-2,2.72-2.34,3A9.43,9.43,0,0,1,39,139.42L37,141.76c-2.42-1.12-5.6-4.08-7.64-5.81l-2.29-2A12.34,12.34,0,0,1,26,132.82l2-2.47,3.95-4.65,1-1.16C33.29,124.14,34.07,123.47,34.2,123Z" transform="translate(-23.95 -7.65)"/><path class="cls-3" d="M26,132.82l2-2.47a19.54,19.54,0,0,1,2.51,1.88c2.37,1.82,6.68,4.83,8.48,7.19L37,141.76c-2.42-1.12-5.6-4.08-7.64-5.81l-2.29-2A12.34,12.34,0,0,1,26,132.82Z" transform="translate(-23.95 -7.65)"/><path class="cls-3" d="M34.2,123l.95.81,3.08,2.57c1.46,1.15,5.63,4,6.59,5.51l-2,2.72-9.35-7.18a11.2,11.2,0,0,1-1.54-1.69l1-1.16C33.29,124.14,34.07,123.47,34.2,123Z" transform="translate(-23.95 -7.65)"/><path class="cls-3" d="M34.2,123l.95.81a24.33,24.33,0,0,1-1.68,3.62,11.2,11.2,0,0,1-1.54-1.69l1-1.16C33.29,124.14,34.07,123.47,34.2,123Z" transform="translate(-23.95 -7.65)"/><path class="cls-1" d="M99.62,97.25a21.67,21.67,0,0,1,3.58,4.52l2.22,2.49a18.74,18.74,0,0,1,3.66,4.6L98.15,117,95,112.56l-2.2-2.69-3.44-4.74a6.27,6.27,0,0,0,1.25-.79L93,102.63A84.15,84.15,0,0,0,99.62,97.25Z" transform="translate(-23.95 -7.65)"/><path class="cls-4" d="M103.2,101.77l2.22,2.49a6.92,6.92,0,0,1-1.44,1.42l-9,6.88-2.2-2.69C94,108.22,101.35,103,103.2,101.77Z" transform="translate(-23.95 -7.65)"/><path class="cls-1" d="M99.62,97.25a21.67,21.67,0,0,1,3.58,4.52c-1.85,1.27-9.23,6.45-10.39,8.1l-3.44-4.74a6.27,6.27,0,0,0,1.25-.79L93,102.63A84.15,84.15,0,0,0,99.62,97.25Z" transform="translate(-23.95 -7.65)"/><path class="cls-1" d="M116.83,118.48a27,27,0,0,1,3.62,4.55c.72.85,1.64,2.17,2.3,2.88a1,1,0,0,1,.46.37l1.69,2.1a13.61,13.61,0,0,1,1.53,2l0,.06,1.45,1.68a7.29,7.29,0,0,0,.66.81c-2.49,2.83-8.22,6.72-11.4,8.62l-1.3-1.52a2.82,2.82,0,0,0-.8-.78l-3.53-4.68-2.3-3.18A28.68,28.68,0,0,1,106,127c.94-.78,2-1.41,3-2.12l6.5-5A5.39,5.39,0,0,0,116.83,118.48Z" transform="translate(-23.95 -7.65)"/><path class="cls-4" d="M126.45,130.4l1.45,1.68a7.29,7.29,0,0,0,.66.81c-2.49,2.83-8.22,6.72-11.4,8.62l-1.3-1.52a2.82,2.82,0,0,0-.8-.78l8.78-7C124.69,131.61,125.55,131,126.45,130.4Z" transform="translate(-23.95 -7.65)"/><path class="cls-4" d="M120.45,123c.72.85,1.64,2.17,2.3,2.88l-5.9,4.64a60.35,60.35,0,0,1-5.32,4l-2.3-3.18Z" transform="translate(-23.95 -7.65)"/><path class="cls-1" d="M116.83,118.48a27,27,0,0,1,3.62,4.55l-11.22,8.32A28.68,28.68,0,0,1,106,127c.94-.78,2-1.41,3-2.12l6.5-5A5.39,5.39,0,0,0,116.83,118.48Z" transform="translate(-23.95 -7.65)"/><path class="cls-4" d="M73.53,79.72,51.2,47.14l-23.13-33c-.91-1.32-1.46-2.43.69-3a13.93,13.93,0,0,1,1.75,1.93l10.41,13.4L79.68,75.08a10.06,10.06,0,0,1-1.3.8l-1.82,1.24C75.47,77.92,74.57,78.9,73.53,79.72Z" transform="translate(-23.95 -7.65)"/><path class="cls-3" d="M78.16,71.29l13.2-16,11-13.65L120,19.51l6.91-9c.45-.56,2.14-2.78,2.7-2.89,2.3.77,1.34,1.88.5,3.07l-8.21,11.42L91.46,65.9,86,74.29a7.7,7.7,0,0,0-1,1.68l0,.06A61.54,61.54,0,0,1,81,82.22a15.61,15.61,0,0,0-1.26,1.86l-8.5,12.16a5.19,5.19,0,0,1-.83,1.21,2.73,2.73,0,0,1-.43-.33l-5.49-4.27a26,26,0,0,1-2.31-2L73.36,77.33c.8-1.06,1.43-2.23,2.28-3.27L77.1,72.4A10.09,10.09,0,0,0,78.16,71.29Z" transform="translate(-23.95 -7.65)"/></svg>