<svg width="40" height="40" viewBox="0 0 40 40" fill="none" xmlns="http://www.w3.org/2000/svg">
<path fill-rule="evenodd" clip-rule="evenodd" d="M19.84 0.160156C25.23 0.160156 25.9 0.180156 28.02 0.280156C30.13 0.380156 31.57 0.710156 32.84 1.20016C34.14 1.71016 35.25 2.38016 36.35 3.49016C37.45 4.59016 38.13 5.70016 38.64 7.00016C39.13 8.26016 39.47 9.70016 39.56 11.8202C39.66 13.9402 39.68 14.6102 39.68 20.0002C39.68 25.3902 39.66 26.0602 39.56 28.1802C39.46 30.2902 39.13 31.7302 38.64 33.0002C38.13 34.3002 37.45 35.4102 36.35 36.5102C35.25 37.6102 34.14 38.2902 32.84 38.8002C31.58 39.2902 30.14 39.6302 28.02 39.7202C25.9 39.8202 25.23 39.8402 19.84 39.8402C14.45 39.8402 13.78 39.8202 11.66 39.7202C9.55 39.6202 8.11 39.2902 6.84 38.8002C5.53999 38.2902 4.43 37.6202 3.33 36.5102C2.23 35.4102 1.55 34.3002 1.04 33.0002C0.550003 31.7402 0.209999 30.3002 0.120003 28.1802C0.0200043 26.0602 0 25.3902 0 20.0002C0 14.6102 0.0200043 13.9402 0.120003 11.8202C0.220001 9.71016 0.550003 8.27016 1.04 7.00016C1.55 5.70016 2.23 4.59016 3.33 3.49016C4.43 2.39016 5.53999 1.71016 6.84 1.20016C8.1 0.710156 9.54 0.370156 11.66 0.280156C13.78 0.180156 14.45 0.160156 19.84 0.160156ZM19.84 3.73016C14.54 3.73016 13.91 3.75016 11.82 3.85016C9.89 3.94016 8.84 4.26016 8.14 4.53016C7.21 4.89016 6.55 5.32016 5.86 6.01016C5.17 6.70016 4.74 7.36016 4.38 8.29016C4.11 8.99016 3.78999 10.0402 3.7 11.9702C3.61 14.0602 3.59 14.6902 3.59 19.9902C3.59 25.2902 3.61 25.9102 3.7 28.0102C3.78999 29.9402 4.11 30.9902 4.38 31.6902C4.74 32.6202 5.17 33.2802 5.86 33.9702C6.55 34.6602 7.21 35.0902 8.14 35.4502C8.84 35.7202 9.89 36.0402 11.82 36.1302C13.91 36.2302 14.54 36.2402 19.84 36.2402C25.14 36.2402 25.76 36.2202 27.86 36.1302C29.79 36.0402 30.84 35.7202 31.54 35.4502C32.47 35.0902 33.13 34.6602 33.82 33.9702C34.51 33.2702 34.94 32.6202 35.3 31.6902C35.57 30.9902 35.89 29.9402 35.98 28.0102C36.08 25.9202 36.1 25.2902 36.1 19.9902C36.1 14.6902 36.08 14.0702 35.98 11.9702C35.89 10.0402 35.57 8.98016 35.3 8.29016C34.94 7.36016 34.51 6.70016 33.82 6.01016C33.13 5.32016 32.47 4.89016 31.54 4.53016C30.84 4.26016 29.79 3.94016 27.86 3.85016C25.77 3.75016 25.14 3.73016 19.84 3.73016ZM19.8399 26.6203C23.4899 26.6203 26.4499 23.6603 26.4499 20.0103C26.4499 16.3603 23.4899 13.4003 19.8399 13.4003C16.1899 13.4003 13.2299 16.3603 13.2299 20.0103C13.2299 23.6603 16.1899 26.6203 19.8399 26.6203ZM19.8399 9.82031C25.4699 9.82031 30.0299 14.3803 30.0299 20.0103C30.0299 25.6403 25.4699 30.2003 19.8399 30.2003C14.2099 30.2003 9.6499 25.6403 9.6499 20.0103C9.6499 14.3803 14.2099 9.82031 19.8399 9.82031ZM9.25011 11.7903C7.94012 11.7903 6.87012 10.7303 6.87012 9.41027C6.87012 8.10027 7.94012 7.03027 9.25011 7.03027C10.5601 7.03027 11.6301 8.10027 11.6301 9.41027C11.6301 10.7203 10.5601 11.7903 9.25011 11.7903Z" fill="white"/>
</svg>
