<svg id="Capa_1" data-name="Capa 1" xmlns="http://www.w3.org/2000/svg" viewBox="0 0 458.46 458.34"><defs><style>.cls-1{fill:#00d;}</style></defs><title>saturn</title><path class="cls-1" d="M402,73.83a23.65,23.65,0,0,1,8.72.29l1.33.38c22.1,6.46,14.75,36.74,7.13,52.35-2.94,6-6.31,11.69-8.85,17.94l-11.06-14.41c-13.12-15-23.82-23.94-39.66-36.19l.06-.2c7.68-6.64,28.73-18.41,39.63-19.75Z" transform="translate(-26.65 -21.96)"/><path class="cls-1" d="M97.23,349.09l10.52,13.85c11,13.57,24,26.75,38.48,36.69,2.34,1.6,4.81,3,7,4.81-4.37,3.87-18.95,9.88-24.44,11.92-17.83,6.81-45,10-50.17-14.23l-.09-.41C75,385.75,88.52,362.68,97.23,349.09Z" transform="translate(-26.65 -21.96)"/><path class="cls-1" d="M447,22.35a39.83,39.83,0,0,1,11.54.06l4.47.87c26.26,5.48,24.07,35.7,18.65,55.56C475.62,101.09,466,122,454.07,141.71l-31.35,46L379.17,241l-79.49,85.56L263.57,360.9,198,415.55a432.18,432.18,0,0,1-46,30L136,454.8c-24.31,13.3-74.5,36.56-97.83,19.44C4.42,449.48,54,361.36,69.88,335.51a190.09,190.09,0,0,1,10.53-16.24l6.4,13.22c.74,1.65.56,1.74-.32,3.22L62,382.25l-8.85,20.69-8.41,25.69c-2.6,9.7-6.32,28.41,4.57,34l.93.47c15.8,7.38,49-7.94,64.84-15.5C174.64,419.18,225.3,375.15,272.75,330A1303.6,1303.6,0,0,0,398.09,192.8l17.15-21.55,21.53-31.62a285.52,285.52,0,0,0,18-32.77l8.47-21.14c3.45-9.74,6.53-20.12,6.54-30.53,0-16.07-8.84-19-24.13-17.19-23.12,2.8-45.45,14.67-65.5,25.74L355.56,77.57c-4,2.32-7.74,5.93-11.9,7.78-4-2.55-10.84-5.87-14-8.32l.27-.33c2.35-2.77,5.86-4.7,8.89-6.64l11-6.92c25.83-15.81,55-33,85.19-38.86a73.13,73.13,0,0,1,8.56-1.55Z" transform="translate(-26.65 -21.96)"/><path class="cls-1" d="M424.28,211.63l.35.07c.92,4.42,2.31,8.67,3,13.18,2.76,18.49,3,42-1.43,60.42l-1,5.08c-9.62,44.86-38.65,85.09-77.49,109.29C314.31,420.45,267,430.85,228,421.88l-9.05-1.73c2.49-1.67,4.6-4.09,7-6l22.72-18.5,68.65-63.87,51.81-54.62,45.39-52.44C417.88,220.58,421.59,216.32,424.28,211.63Z" transform="translate(-26.65 -21.96)"/><path class="cls-1" d="M245.44,77.33c11.9-.23,24.51-.32,36.24,2.07l20.51,5.06c33.75,10.94,63.63,30.47,85.54,58.74,4.81,6.21,9.16,12,12.7,19l-30.08,38.69-56.93,64.76-20.76,21.21c-27.05,27.66-54.93,54.45-84.77,79.1l-31.13,24.33a39.09,39.09,0,0,0-6.28,5.17l-22.82-15.63c-44.51-37.4-70-88.75-64.07-147.48,7.3-72.73,59.35-133,130.16-150.09,5.74-1.39,12.05-3,17.94-3.47Z" transform="translate(-26.65 -21.96)"/></svg>